<svg xmlns="http://www.w3.org/2000/svg" width="900" height="675" viewBox="0 0 900 675">
  <defs>
    <linearGradient id="g" x1="0" y1="0" x2="1" y2="1">
      <stop offset="0" stop-color="#fb7185" stop-opacity="0.95"/>
      <stop offset="0.45" stop-color="#a78bfa" stop-opacity="0.92"/>
      <stop offset="1" stop-color="#38bdf8" stop-opacity="0.92"/>
    </linearGradient>
    <radialGradient id="r" cx="30%" cy="25%" r="75%">
      <stop offset="0" stop-color="#ffffff" stop-opacity="0.55"/>
      <stop offset="1" stop-color="#ffffff" stop-opacity="0"/>
    </radialGradient>
    <filter id="shadow" x="-20%" y="-20%" width="140%" height="140%">
      <feDropShadow dx="0" dy="18" stdDeviation="18" flood-color="#0f172a" flood-opacity="0.22"/>
    </filter>
  </defs>
  <rect width="900" height="675" rx="56" fill="url(#g)"/>
  <rect width="900" height="675" rx="56" fill="url(#r)"/>
  <g filter="url(#shadow)">
    <path d="M185 370c0-110 90-200 200-200h130c110 0 200 90 200 200v0c0 110-90 200-200 200H385c-110 0-200-90-200-200z" fill="#ffffff" fill-opacity="0.88"/>
    <path d="M235 365c0-82 67-148 148-148h134c81 0 148 66 148 148v0c0 82-67 148-148 148H383c-81 0-148-66-148-148z" fill="#0f172a" fill-opacity="0.06"/>
    <circle cx="320" cy="315" r="16" fill="#fb7185" fill-opacity="0.9"/>
    <circle cx="380" cy="290" r="12" fill="#f59e0b" fill-opacity="0.85"/>
    <circle cx="450" cy="310" r="14" fill="#22c55e" fill-opacity="0.8"/>
    <circle cx="520" cy="290" r="12" fill="#38bdf8" fill-opacity="0.85"/>
    <circle cx="570" cy="320" r="16" fill="#a78bfa" fill-opacity="0.9"/>
    <path d="M260 475h380" stroke="#0f172a" stroke-opacity="0.18" stroke-width="10" stroke-linecap="round"/>
  </g>
  <text x="50%" y="88%" text-anchor="middle" font-family="ui-sans-serif, system-ui, -apple-system, Segoe UI, Roboto" font-size="34" font-weight="800" fill="#0f172a" fill-opacity="0.65">
    PRODUCT IMAGE
  </text>
</svg>
